<mxfile host="app.diagrams.net" modified="2021-01-20T08:45:15.168Z" agent="5.0 (X11; Linux x86_64) AppleWebKit/537.36 (KHTML, like Gecko) Chrome/87.0.4280.88 Safari/537.36" etag="WcInIH5VNOtijnXaHg7m" version="14.2.5" type="github">
  <diagram name="Page-1" id="c7558073-3199-34d8-9f00-42111426c3f3">
    <mxGraphModel dx="1997" dy="1108" grid="1" gridSize="10" guides="1" tooltips="1" connect="1" arrows="1" fold="1" page="1" pageScale="1" pageWidth="826" pageHeight="1169" background="#ffffff" math="0" shadow="0">
      <root>
        <mxCell id="0" />
        <mxCell id="1" parent="0" />
        <mxCell id="62P6Zqt_UsgFIFgiozvw-99" style="edgeStyle=orthogonalEdgeStyle;rounded=0;orthogonalLoop=1;jettySize=auto;html=1;" edge="1" parent="1" source="62P6Zqt_UsgFIFgiozvw-96">
          <mxGeometry relative="1" as="geometry">
            <mxPoint x="290" y="240" as="targetPoint" />
          </mxGeometry>
        </mxCell>
        <mxCell id="62P6Zqt_UsgFIFgiozvw-100" value="land diff" style="edgeLabel;html=1;align=center;verticalAlign=middle;resizable=0;points=[];" vertex="1" connectable="0" parent="62P6Zqt_UsgFIFgiozvw-99">
          <mxGeometry x="0.2133" y="-2" relative="1" as="geometry">
            <mxPoint as="offset" />
          </mxGeometry>
        </mxCell>
        <mxCell id="62P6Zqt_UsgFIFgiozvw-96" value="developer" style="rounded=1;whiteSpace=wrap;html=1;" vertex="1" parent="1">
          <mxGeometry x="20" y="210" width="120" height="60" as="geometry" />
        </mxCell>
        <mxCell id="62P6Zqt_UsgFIFgiozvw-101" style="edgeStyle=orthogonalEdgeStyle;rounded=0;orthogonalLoop=1;jettySize=auto;html=1;exitX=1;exitY=0.5;exitDx=0;exitDy=0;entryX=0;entryY=0.5;entryDx=0;entryDy=0;" edge="1" parent="1" source="62P6Zqt_UsgFIFgiozvw-97" target="62P6Zqt_UsgFIFgiozvw-98">
          <mxGeometry relative="1" as="geometry" />
        </mxCell>
        <mxCell id="62P6Zqt_UsgFIFgiozvw-102" value="trigger" style="edgeLabel;html=1;align=center;verticalAlign=middle;resizable=0;points=[];" vertex="1" connectable="0" parent="62P6Zqt_UsgFIFgiozvw-101">
          <mxGeometry x="0.2263" relative="1" as="geometry">
            <mxPoint as="offset" />
          </mxGeometry>
        </mxCell>
        <mxCell id="62P6Zqt_UsgFIFgiozvw-97" value="code repo" style="rounded=1;whiteSpace=wrap;html=1;" vertex="1" parent="1">
          <mxGeometry x="293" y="210" width="120" height="60" as="geometry" />
        </mxCell>
        <mxCell id="62P6Zqt_UsgFIFgiozvw-104" style="edgeStyle=orthogonalEdgeStyle;rounded=0;orthogonalLoop=1;jettySize=auto;html=1;exitX=0.5;exitY=1;exitDx=0;exitDy=0;entryX=0.5;entryY=0;entryDx=0;entryDy=0;" edge="1" parent="1" source="62P6Zqt_UsgFIFgiozvw-109" target="62P6Zqt_UsgFIFgiozvw-103">
          <mxGeometry relative="1" as="geometry" />
        </mxCell>
        <mxCell id="62P6Zqt_UsgFIFgiozvw-105" value="build" style="edgeLabel;html=1;align=center;verticalAlign=middle;resizable=0;points=[];" vertex="1" connectable="0" parent="62P6Zqt_UsgFIFgiozvw-104">
          <mxGeometry x="0.2182" y="1" relative="1" as="geometry">
            <mxPoint as="offset" />
          </mxGeometry>
        </mxCell>
        <mxCell id="62P6Zqt_UsgFIFgiozvw-107" style="edgeStyle=orthogonalEdgeStyle;rounded=0;orthogonalLoop=1;jettySize=auto;html=1;exitX=1;exitY=0.5;exitDx=0;exitDy=0;" edge="1" parent="1" source="62P6Zqt_UsgFIFgiozvw-98" target="62P6Zqt_UsgFIFgiozvw-106">
          <mxGeometry relative="1" as="geometry" />
        </mxCell>
        <mxCell id="62P6Zqt_UsgFIFgiozvw-108" value="apply" style="edgeLabel;html=1;align=center;verticalAlign=middle;resizable=0;points=[];" vertex="1" connectable="0" parent="62P6Zqt_UsgFIFgiozvw-107">
          <mxGeometry x="0.2444" y="-1" relative="1" as="geometry">
            <mxPoint as="offset" />
          </mxGeometry>
        </mxCell>
        <mxCell id="62P6Zqt_UsgFIFgiozvw-111" style="edgeStyle=orthogonalEdgeStyle;rounded=0;orthogonalLoop=1;jettySize=auto;html=1;exitX=0.5;exitY=1;exitDx=0;exitDy=0;" edge="1" parent="1" source="62P6Zqt_UsgFIFgiozvw-98" target="62P6Zqt_UsgFIFgiozvw-109">
          <mxGeometry relative="1" as="geometry">
            <Array as="points">
              <mxPoint x="610" y="310" />
              <mxPoint x="610" y="310" />
            </Array>
          </mxGeometry>
        </mxCell>
        <mxCell id="62P6Zqt_UsgFIFgiozvw-112" value="compare version" style="edgeLabel;html=1;align=center;verticalAlign=middle;resizable=0;points=[];" vertex="1" connectable="0" parent="62P6Zqt_UsgFIFgiozvw-111">
          <mxGeometry x="-0.2444" y="-2" relative="1" as="geometry">
            <mxPoint as="offset" />
          </mxGeometry>
        </mxCell>
        <mxCell id="62P6Zqt_UsgFIFgiozvw-98" value="jenkins" style="rounded=1;whiteSpace=wrap;html=1;" vertex="1" parent="1">
          <mxGeometry x="550" y="210" width="120" height="60" as="geometry" />
        </mxCell>
        <mxCell id="62P6Zqt_UsgFIFgiozvw-113" style="edgeStyle=orthogonalEdgeStyle;rounded=0;orthogonalLoop=1;jettySize=auto;html=1;exitX=1;exitY=0.5;exitDx=0;exitDy=0;entryX=0.5;entryY=1;entryDx=0;entryDy=0;" edge="1" parent="1" source="62P6Zqt_UsgFIFgiozvw-103" target="62P6Zqt_UsgFIFgiozvw-106">
          <mxGeometry relative="1" as="geometry" />
        </mxCell>
        <mxCell id="62P6Zqt_UsgFIFgiozvw-114" value="pull image" style="edgeLabel;html=1;align=center;verticalAlign=middle;resizable=0;points=[];" vertex="1" connectable="0" parent="62P6Zqt_UsgFIFgiozvw-113">
          <mxGeometry x="0.2333" y="1" relative="1" as="geometry">
            <mxPoint as="offset" />
          </mxGeometry>
        </mxCell>
        <mxCell id="62P6Zqt_UsgFIFgiozvw-103" value="registry" style="rounded=1;whiteSpace=wrap;html=1;" vertex="1" parent="1">
          <mxGeometry x="550" y="510" width="120" height="60" as="geometry" />
        </mxCell>
        <mxCell id="62P6Zqt_UsgFIFgiozvw-106" value="k8s" style="rounded=1;whiteSpace=wrap;html=1;" vertex="1" parent="1">
          <mxGeometry x="760" y="210" width="120" height="60" as="geometry" />
        </mxCell>
        <mxCell id="62P6Zqt_UsgFIFgiozvw-109" value="redis" style="rounded=1;whiteSpace=wrap;html=1;" vertex="1" parent="1">
          <mxGeometry x="550" y="360" width="120" height="60" as="geometry" />
        </mxCell>
      </root>
    </mxGraphModel>
  </diagram>
</mxfile>
